<svg fill="none" height="24" viewBox="0 0 24 24" width="24" xmlns="http://www.w3.org/2000/svg"><path clip-rule="evenodd" d="m6.2 2h-.03854-.00004c-.52713-.00002-.98188-.00003-1.35645.03057-.39534.0323-.78856.10362-1.16694.29641-.56449.28762-1.02343.74656-1.31105 1.31105-.19279.37838-.26411.7716-.29641 1.16694-.0306.37457-.03059.82932-.03057 1.35645v.00004.03854.6.03855.00004c-.00002.52713-.00003.98188.03057 1.35644.0323.39534.10362.78856.29641 1.16694.28762.56449.74656 1.02343 1.31105 1.31103.37838.1928.7716.2641 1.16694.2964.37457.0306.82933.0306 1.35648.0306h.00003.03852.6.03852.00003c.52715 0 .98191 0 1.35648-.0306.39534-.0323.78856-.1036 1.16694-.2964.56449-.2876 1.02343-.74654 1.31103-1.31103.1928-.37838.2641-.7716.2964-1.16694.0306-.37457.0306-.82933.0306-1.35648v-.00003-.03852-.6-.03852-.00003c0-.52715 0-.98191-.0306-1.35648-.0323-.39534-.1036-.78856-.2964-1.16694-.2876-.56449-.74654-1.02343-1.31103-1.31105-.37838-.19279-.7716-.26411-1.16694-.29641-.37456-.0306-.82931-.03059-1.35644-.03057h-.00004-.03855zm-1.65399 2.109c.04945-.0252.15016-.06288.42183-.08507.28333-.02315.65561-.02393 1.23216-.02393h.6c.57655 0 .94883.00078 1.23217.02393.27166.02219.37238.05987.42182.08507.18816.09587.34115.24885.43702.43701.02519.04945.06287.15016.08506.42183.02315.28333.02393.65561.02393 1.23216v.6c0 .57655-.00078.94883-.02393 1.23217-.02219.27166-.05987.37238-.08506.42182-.09587.18816-.24886.34115-.43702.43702-.04944.02519-.15016.06287-.42182.08506-.28334.02315-.65561.02393-1.23217.02393h-.6c-.57655 0-.94883-.00078-1.23216-.02393-.27167-.02219-.37238-.05987-.42183-.08506-.18816-.09587-.34114-.24886-.43701-.43702-.0252-.04944-.06288-.15016-.08507-.42182-.02315-.28334-.02393-.65561-.02393-1.23217v-.6c0-.57655.00078-.94883.02393-1.23216.02219-.27167.05987-.37238.08507-.42183.09587-.18816.24885-.34114.43701-.43701zm12.65399-2.109h-.0385-.0001c-.5271-.00002-.9819-.00003-1.3564.03057-.3954.0323-.7886.10362-1.167.29641-.5645.28762-1.0234.74656-1.311 1.31105-.1928.37838-.2641.7716-.2964 1.16694-.0306.37458-.0306.82934-.0306 1.35649v.03854.6.03855c0 .52714 0 .98191.0306 1.35648.0323.39534.1036.78856.2964 1.16694.2876.56449.7465 1.02343 1.311 1.31103.3784.1928.7716.2641 1.167.2964.3745.0306.8293.0306 1.3565.0306h.0385.6.0385.0001c.5271 0 .9819 0 1.3564-.0306.3954-.0323.7886-.1036 1.167-.2964.5645-.2876 1.0234-.74654 1.311-1.31103.1928-.37838.2641-.7716.2964-1.16694.0306-.37454.0306-.82925.0306-1.35634v-.00002-.00003-.00012-.03852-.6-.03852-.00012-.00002-.00003c0-.52709 0-.9818-.0306-1.35634-.0323-.39534-.1036-.78856-.2964-1.16694-.2876-.56449-.7465-1.02343-1.311-1.31105-.3784-.19279-.7716-.26411-1.167-.29641-.3745-.0306-.8293-.03059-1.3564-.03057h-.0001-.0385zm-1.654 2.109c.0495-.0252.1502-.06288.4218-.08507.2834-.02315.6556-.02393 1.2322-.02393h.6c.5766 0 .9488.00078 1.2322.02393.2716.02219.3723.05987.4218.08507.1882.09587.3411.24885.437.43701.0252.04945.0629.15016.0851.42183.0231.28333.0239.65561.0239 1.23216v.6c0 .57655-.0008.94883-.0239 1.23217-.0222.27166-.0599.37238-.0851.42182-.0959.18816-.2488.34115-.437.43702-.0495.02519-.1502.06287-.4218.08506-.2834.02315-.6556.02393-1.2322.02393h-.6c-.5766 0-.9488-.00078-1.2322-.02393-.2716-.02219-.3723-.05987-.4218-.08506-.1882-.09587-.3411-.24886-.437-.43702-.0252-.04944-.0629-.15016-.0851-.42182-.0231-.28334-.0239-.65561-.0239-1.23217v-.6c0-.57655.0008-.94883.0239-1.23216.0222-.27167.0599-.37238.0851-.42183.0959-.18816.2488-.34114.437-.43701zm-9.38454 8.891h.03854.6.03855c.52714 0 .98191 0 1.35648.0306.39534.0323.78856.1036 1.16694.2964.56449.2876 1.02343.7465 1.31103 1.311.1928.3784.2641.7716.2964 1.167.0306.3745.0306.8293.0306 1.3565v.0385.6.0385.0001c0 .5271 0 .9819-.0306 1.3564-.0323.3954-.1036.7886-.2964 1.167-.2876.5645-.74654 1.0234-1.31103 1.311-.37838.1928-.7716.2641-1.16694.2964-.37454.0306-.82926.0306-1.35636.0306h-.00002-.00013-.03852-.6-.03852-.00012-.00002c-.5271 0-.98182 0-1.35637-.0306-.39534-.0323-.78856-.1036-1.16694-.2964-.56449-.2876-1.02343-.7465-1.31105-1.311-.19279-.3784-.26411-.7716-.29641-1.167-.0306-.3745-.03059-.8293-.03057-1.3564v-.0001-.0385-.6-.0385-.0001c-.00002-.5271-.00003-.9819.03057-1.3564.0323-.3954.10362-.7886.29641-1.167.28762-.5645.74656-1.0234 1.31105-1.311.37838-.1928.7716-.2641 1.16694-.2964.37458-.0306.82934-.0306 1.35649-.0306zm-1.19362 2.0239c-.27167.0222-.37238.0599-.42183.0851-.18816.0959-.34114.2488-.43701.437-.0252.0495-.06288.1502-.08507.4218-.02315.2834-.02393.6556-.02393 1.2322v.6c0 .5766.00078.9488.02393 1.2322.02219.2716.05987.3723.08507.4218.09587.1882.24885.3411.43701.437.04945.0252.15016.0629.42183.0851.28333.0231.65561.0239 1.23216.0239h.6c.57656 0 .94883-.0008 1.23217-.0239.27166-.0222.37238-.0599.42182-.0851.18816-.0959.34115-.2488.43702-.437.02519-.0495.06287-.1502.08506-.4218.02315-.2834.02393-.6556.02393-1.2322v-.6c0-.5766-.00078-.9488-.02393-1.2322-.02219-.2716-.05987-.3723-.08506-.4218-.09587-.1882-.24886-.3411-.43702-.437-.04944-.0252-.15016-.0629-.42182-.0851-.28334-.0231-.65562-.0239-1.23217-.0239h-.6c-.57655 0-.94883.0008-1.23216.0239zm12.23216-2.0239h-.0385c-.5272 0-.982 0-1.3565.0306-.3954.0323-.7886.1036-1.167.2964-.5645.2876-1.0234.7465-1.311 1.311-.1928.3784-.2641.7716-.2964 1.167-.0306.3745-.0306.8293-.0306 1.3565v.0385.6.0385c0 .5272 0 .982.0306 1.3565.0323.3954.1036.7886.2964 1.167.2876.5645.7465 1.0234 1.311 1.311.3784.1928.7716.2641 1.167.2964.3745.0306.8293.0306 1.3564.0306h.0001.0385.6.0385.0001c.5272 0 .9819 0 1.3564-.0306.3954-.0323.7886-.1036 1.167-.2964.5645-.2876 1.0234-.7465 1.311-1.311.1928-.3784.2641-.7716.2964-1.167.0306-.3745.0306-.8292.0306-1.3564v-.0001-.0385-.6-.0385-.0001c0-.5271 0-.9819-.0306-1.3564-.0323-.3954-.1036-.7886-.2964-1.167-.2876-.5645-.7465-1.0234-1.311-1.311-.3784-.1928-.7716-.2641-1.167-.2964-.3745-.0306-.8293-.0306-1.3565-.0306h-.0385zm-1.654 2.109c.0495-.0252.1502-.0629.4218-.0851.2834-.0231.6556-.0239 1.2322-.0239h.6c.5766 0 .9488.0008 1.2322.0239.2716.0222.3723.0599.4218.0851.1882.0959.3411.2488.437.437.0252.0495.0629.1502.0851.4218.0231.2834.0239.6556.0239 1.2322v.6c0 .5766-.0008.9488-.0239 1.2322-.0222.2716-.0599.3723-.0851.4218-.0959.1882-.2488.3411-.437.437-.0495.0252-.1502.0629-.4218.0851-.2834.0231-.6556.0239-1.2322.0239h-.6c-.5766 0-.9488-.0008-1.2322-.0239-.2716-.0222-.3723-.0599-.4218-.0851-.1882-.0959-.3411-.2488-.437-.437-.0252-.0495-.0629-.1502-.0851-.4218-.0231-.2834-.0239-.6556-.0239-1.2322v-.6c0-.5766.0008-.9488.0239-1.2322.0222-.2716.0599-.3723.0851-.4218.0959-.1882.2488-.3411.437-.437z" fill="#fff" fill-rule="evenodd"/></svg>