<svg height="16" viewBox="0 0 16 16" width="16" xmlns="http://www.w3.org/2000/svg"><path d="m14 9c.5523 0 1 .44772 1 1v3c0 1.1046-.8954 2-2 2h-10c-1.10457 0-2-.8954-2-2v-3c0-.55228.44772-1 1-1s1 .44771 1 1v3h10v-3c0-.55229.4477-1 1-1zm-6-8c.55228 0 1 .44772 1 1v4.58579l1.2929-1.2929c.3905-.39052 1.0237-.39052 1.4142 0 .3905.39053.3905 1.02369 0 1.41422l-3.7071 3.70709-3.70711-3.70709c-.39052-.39053-.39052-1.02369 0-1.41422.39053-.39052 1.02369-.39052 1.41422 0l1.29289 1.2929v-4.58579c0-.55228.44772-1 1-1z" fill="#FFF"/></svg>