<svg xmlns="http://www.w3.org/2000/svg" height="24" viewBox="0 -960 960 960" width="24" fill="#fff"><path d="M677.518-282.423q24.751 0 42.001-17.191 17.25-17.191 17.25-41.943 0-24.751-17.191-42.001-17.191-17.25-41.942-17.25t-42.001 17.191q-17.25 17.192-17.25 41.943 0 24.751 17.191 42.001 17.191 17.25 41.942 17.25Zm.059 118.385q31.011 0 56.698-13.654t42.379-37.846q-22.885-13.5-47.587-20.597-24.701-7.096-51.379-7.096-26.611 0-51.053 7.096-24.443 7.097-47.135 20.597 16.5 24.192 41.97 37.846 25.469 13.654 56.107 13.654Zm-197.582 55.19q-126.609-34.724-209.667-149.758-83.057-115.035-83.057-257.418V-740.45L480-850.383l292.729 109.884v226.923q-12.884-5-27.614-9.519-14.731-4.519-28.346-6.611v-172.256L480-790.462l-236.769 88.47V-516q0 57.5 16.365 109.866 16.366 52.366 44.328 96.154 27.961 43.789 65.231 76.654 37.269 32.865 79.001 51.173l1.154-.385q6.615 17.961 17.864 35.538 11.25 17.576 26.019 32.729-2.231.962-6.693 2.808-4.461 1.846-6.505 2.615Zm197.636.77q-72.553 0-123.476-50.869-50.923-50.868-50.923-123.422 0-72.553 50.869-123.476 50.868-50.923 123.422-50.923 72.553 0 123.476 50.869 50.923 50.868 50.923 123.422 0 72.553-50.869 123.476-50.868 50.923-123.422 50.923ZM480-486.307Z"/></svg>